  0
SECTION
  2
BLOCKS
  0
ENDSEC
  0
SECTION
  2
ENTITIES
  0
LINE
  8
0
 10
-1.02778
 20
-22.6111
 11
-1.02778
 21
-24.6667
  0
LINE
  8
0
 10
-1.02778
 20
-24.6667
 11
2.05556
 21
-24.6667
  0
LINE
  8
0
 10
2.05556
 20
-24.6667
 11
2.05556
 21
-27.75
  0
LINE
  8
0
 10
2.05556
 20
-27.75
 11
4.11625
 21
-27.75
  0
LINE
  8
0
 10
4.11625
 20
-27.75
 11
4.11625
 21
-24.6615
  0
LINE
  8
0
 10
4.11625
 20
-24.6615
 11
2.06069
 21
-24.6615
  0
LINE
  8
0
 10
2.06069
 20
-24.6615
 11
2.06069
 21
-22.606
  0
LINE
  8
0
 10
2.06069
 20
-22.606
 11
-1.02264
 21
-22.606
  0
LINE
  8
0
 10
-1.02264
 20
-22.606
 11
-1.02264
 21
-14.3889
  0
LINE
  8
0
 10
-1.02264
 20
-14.3889
 11
2.05556
 21
-14.3889
  0
LINE
  8
0
 10
2.05556
 20
-14.3889
 11
2.05556
 21
-17.4722
  0
LINE
  8
0
 10
2.05556
 20
-17.4722
 11
4.11625
 21
-17.4722
  0
LINE
  8
0
 10
4.11625
 20
-17.4722
 11
4.11625
 21
-12.3333
  0
LINE
  8
0
 10
4.11625
 20
-12.3333
 11
7.19444
 21
-12.3333
  0
LINE
  8
0
 10
7.19444
 20
-12.3333
 11
7.19444
 21
-17.4722
  0
LINE
  8
0
 10
7.19444
 20
-17.4722
 11
9.25
 21
-17.4722
  0
LINE
  8
0
 10
9.25
 20
-17.4722
 11
9.25
 21
-22.6111
  0
LINE
  8
0
 10
9.25
 20
-22.6111
 11
12.3385
 21
-22.6111
  0
LINE
  8
0
 10
12.3385
 20
-22.6111
 11
12.3385
 21
-19.5278
  0
LINE
  8
0
 10
12.3385
 20
-19.5278
 11
14.3889
 21
-19.5278
  0
LINE
  8
0
 10
14.3889
 20
-19.5278
 11
14.3889
 21
-27.75
  0
LINE
  8
0
 10
14.3889
 20
-27.75
 11
17.4774
 21
-27.75
  0
LINE
  8
0
 10
17.4774
 20
-27.75
 11
17.4774
 21
-24.6667
  0
LINE
  8
0
 10
17.4774
 20
-24.6667
 11
22.6111
 21
-24.6667
  0
LINE
  8
0
 10
22.6111
 20
-24.6667
 11
22.6111
 21
-27.75
  0
LINE
  8
0
 10
22.6111
 20
-27.75
 11
24.6718
 21
-27.75
  0
LINE
  8
0
 10
24.6718
 20
-27.75
 11
24.6718
 21
-24.6615
  0
LINE
  8
0
 10
24.6718
 20
-24.6615
 11
22.6162
 21
-24.6615
  0
LINE
  8
0
 10
22.6162
 20
-24.6615
 11
22.6162
 21
-22.6111
  0
LINE
  8
0
 10
22.6162
 20
-22.6111
 11
27.7551
 21
-22.6111
  0
LINE
  8
0
 10
27.7551
 20
-22.6111
 11
27.7551
 21
-19.5226
  0
LINE
  8
0
 10
27.7551
 20
-19.5226
 11
22.6111
 21
-19.5226
  0
LINE
  8
0
 10
22.6111
 20
-19.5226
 11
22.6111
 21
-22.606
  0
LINE
  8
0
 10
22.6111
 20
-22.606
 11
17.4774
 21
-22.606
  0
LINE
  8
0
 10
17.4774
 20
-22.606
 11
17.4774
 21
-19.5278
  0
LINE
  8
0
 10
17.4774
 20
-19.5278
 11
19.5329
 21
-19.5278
  0
LINE
  8
0
 10
19.5329
 20
-19.5278
 11
19.5329
 21
-17.4671
  0
LINE
  8
0
 10
19.5329
 20
-17.4671
 11
14.394
 21
-17.4671
  0
LINE
  8
0
 10
14.394
 20
-17.4671
 11
14.394
 21
-14.3889
  0
LINE
  8
0
 10
14.394
 20
-14.3889
 11
22.6111
 21
-14.3889
  0
LINE
  8
0
 10
22.6111
 20
-14.3889
 11
22.6111
 21
-17.4722
  0
LINE
  8
0
 10
22.6111
 20
-17.4722
 11
27.7551
 21
-17.4722
  0
LINE
  8
0
 10
27.7551
 20
-17.4722
 11
27.7551
 21
-14.3837
  0
LINE
  8
0
 10
27.7551
 20
-14.3837
 11
22.6162
 21
-14.3837
  0
LINE
  8
0
 10
22.6162
 20
-14.3837
 11
22.6162
 21
-12.3333
  0
LINE
  8
0
 10
22.6162
 20
-12.3333
 11
24.6718
 21
-12.3333
  0
LINE
  8
0
 10
24.6718
 20
-12.3333
 11
24.6718
 21
-9.25
  0
LINE
  8
0
 10
24.6718
 20
-9.25
 11
27.7551
 21
-9.25
  0
LINE
  8
0
 10
27.7551
 20
-9.25
 11
27.7551
 21
-7.1893
  0
LINE
  8
0
 10
27.7551
 20
-7.1893
 11
24.6667
 21
-7.1893
  0
LINE
  8
0
 10
24.6667
 20
-7.1893
 11
24.6667
 21
-9.24486
  0
LINE
  8
0
 10
24.6667
 20
-9.24486
 11
19.5329
 21
-9.24486
  0
LINE
  8
0
 10
19.5329
 20
-9.24486
 11
19.5329
 21
-4.11111
  0
LINE
  8
0
 10
19.5329
 20
-4.11111
 11
22.6162
 21
-4.11111
  0
LINE
  8
0
 10
22.6162
 20
-4.11111
 11
22.6162
 21
-2.05556
  0
LINE
  8
0
 10
22.6162
 20
-2.05556
 11
24.6718
 21
-2.05556
  0
LINE
  8
0
 10
24.6718
 20
-2.05556
 11
24.6718
 21
1.03292
  0
LINE
  8
0
 10
24.6718
 20
1.03292
 11
22.6162
 21
1.03292
  0
LINE
  8
0
 10
22.6162
 20
1.03292
 11
22.6162
 21
3.08848
  0
LINE
  8
0
 10
22.6162
 20
3.08848
 11
19.5329
 21
3.08848
  0
LINE
  8
0
 10
19.5329
 20
3.08848
 11
19.5329
 21
6.17181
  0
LINE
  8
0
 10
19.5329
 20
6.17181
 11
14.3889
 21
6.17181
  0
LINE
  8
0
 10
14.3889
 20
6.17181
 11
14.3889
 21
3.08848
  0
LINE
  8
0
 10
14.3889
 20
3.08848
 11
9.25
 21
3.08848
  0
LINE
  8
0
 10
9.25
 20
3.08848
 11
9.25
 21
-2.05041
  0
LINE
  8
0
 10
9.25
 20
-2.05041
 11
7.19958
 21
-2.05041
  0
LINE
  8
0
 10
7.19958
 20
-2.05041
 11
7.19958
 21
1.03292
  0
LINE
  8
0
 10
7.19958
 20
1.03292
 11
2.05556
 21
1.03292
  0
LINE
  8
0
 10
2.05556
 20
1.03292
 11
2.05556
 21
-2.05556
  0
LINE
  8
0
 10
2.05556
 20
-2.05556
 11
7.19444
 21
-2.05556
  0
LINE
  8
0
 10
7.19444
 20
-2.05556
 11
7.19444
 21
-4.10597
  0
LINE
  8
0
 10
7.19444
 20
-4.10597
 11
-1.02264
 21
-4.10597
  0
LINE
  8
0
 10
-1.02264
 20
-4.10597
 11
-1.02264
 21
1.03292
  0
LINE
  8
0
 10
-1.02264
 20
1.03292
 11
-3.0782
 21
1.03292
  0
LINE
  8
0
 10
-3.0782
 20
1.03292
 11
-3.0782
 21
3.08333
  0
LINE
  8
0
 10
-3.0782
 20
3.08333
 11
-1.02264
 21
3.08333
  0
LINE
  8
0
 10
-1.02264
 20
3.08333
 11
-1.02264
 21
6.16667
  0
LINE
  8
0
 10
-1.02264
 20
6.16667
 11
2.05556
 21
6.16667
  0
LINE
  8
0
 10
2.05556
 20
6.16667
 11
2.05556
 21
3.08333
  0
LINE
  8
0
 10
2.05556
 20
3.08333
 11
7.19958
 21
3.08333
  0
LINE
  8
0
 10
7.19958
 20
3.08333
 11
7.19958
 21
6.17181
  0
LINE
  8
0
 10
7.19958
 20
6.17181
 11
4.11625
 21
6.17181
  0
LINE
  8
0
 10
4.11625
 20
6.17181
 11
4.11625
 21
8.22222
  0
LINE
  8
0
 10
4.11625
 20
8.22222
 11
7.19958
 21
8.22222
  0
LINE
  8
0
 10
7.19958
 20
8.22222
 11
7.19958
 21
16.4496
  0
LINE
  8
0
 10
7.19958
 20
16.4496
 11
4.11625
 21
16.4496
  0
LINE
  8
0
 10
4.11625
 20
16.4496
 11
4.11625
 21
18.5051
  0
LINE
  8
0
 10
4.11625
 20
18.5051
 11
-1.02264
 21
18.5051
  0
LINE
  8
0
 10
-1.02264
 20
18.5051
 11
-1.02264
 21
23.6389
  0
LINE
  8
0
 10
-1.02264
 20
23.6389
 11
2.05556
 21
23.6389
  0
LINE
  8
0
 10
2.05556
 20
23.6389
 11
2.05556
 21
21.5833
  0
LINE
  8
0
 10
2.05556
 20
21.5833
 11
4.11625
 21
21.5833
  0
LINE
  8
0
 10
4.11625
 20
21.5833
 11
4.11625
 21
23.6389
  0
LINE
  8
0
 10
4.11625
 20
23.6389
 11
7.19958
 21
23.6389
  0
LINE
  8
0
 10
7.19958
 20
23.6389
 11
7.19958
 21
26.7274
  0
LINE
  8
0
 10
7.19958
 20
26.7274
 11
-3.08333
 21
26.7274
  0
LINE
  8
0
 10
-3.08333
 20
26.7274
 11
-3.08333
 21
18.5051
  0
LINE
  8
0
 10
-3.08333
 20
18.5051
 11
-6.16667
 21
18.5051
  0
LINE
  8
0
 10
-6.16667
 20
18.5051
 11
-6.16667
 21
13.3611
  0
LINE
  8
0
 10
-6.16667
 20
13.3611
 11
-3.0782
 21
13.3611
  0
LINE
  8
0
 10
-3.0782
 20
13.3611
 11
-3.0782
 21
16.4444
  0
LINE
  8
0
 10
-3.0782
 20
16.4444
 11
-1.02778
 21
16.4444
  0
LINE
  8
0
 10
-1.02778
 20
16.4444
 11
-1.02778
 21
8.22737
  0
LINE
  8
0
 10
-1.02778
 20
8.22737
 11
-3.0782
 21
8.22737
  0
LINE
  8
0
 10
-3.0782
 20
8.22737
 11
-3.0782
 21
11.3107
  0
LINE
  8
0
 10
-3.0782
 20
11.3107
 11
-6.16667
 21
11.3107
  0
LINE
  8
0
 10
-6.16667
 20
11.3107
 11
-6.16667
 21
8.22222
  0
LINE
  8
0
 10
-6.16667
 20
8.22222
 11
-3.08333
 21
8.22222
  0
LINE
  8
0
 10
-3.08333
 20
8.22222
 11
-3.08333
 21
3.08848
  0
LINE
  8
0
 10
-3.08333
 20
3.08848
 11
-6.16153
 21
3.08848
  0
LINE
  8
0
 10
-6.16153
 20
3.08848
 11
-6.16153
 21
6.17181
  0
LINE
  8
0
 10
-6.16153
 20
6.17181
 11
-13.3611
 21
6.17181
  0
LINE
  8
0
 10
-13.3611
 20
6.17181
 11
-13.3611
 21
-4.10597
  0
LINE
  8
0
 10
-13.3611
 20
-4.10597
 11
-16.4393
 21
-4.10597
  0
LINE
  8
0
 10
-16.4393
 20
-4.10597
 11
-16.4393
 21
1.03292
  0
LINE
  8
0
 10
-16.4393
 20
1.03292
 11
-21.5782
 21
1.03292
  0
LINE
  8
0
 10
-21.5782
 20
1.03292
 11
-21.5782
 21
6.17181
  0
LINE
  8
0
 10
-21.5782
 20
6.17181
 11
-26.7222
 21
6.17181
  0
LINE
  8
0
 10
-26.7222
 20
6.17181
 11
-26.7222
 21
-2.05556
  0
LINE
  8
0
 10
-26.7222
 20
-2.05556
 11
-23.6389
 21
-2.05556
  0
LINE
  8
0
 10
-23.6389
 20
-2.05556
 11
-23.6389
 21
-7.19444
  0
LINE
  8
0
 10
-23.6389
 20
-7.19444
 11
-6.16667
 21
-7.19444
  0
LINE
  8
0
 10
-6.16667
 20
-7.19444
 11
-6.16667
 21
-14.3889
  0
LINE
  8
0
 10
-6.16667
 20
-14.3889
 11
-3.08333
 21
-14.3889
  0
LINE
  8
0
 10
-3.08333
 20
-14.3889
 11
-3.08333
 21
-22.606
  0
LINE
  8
0
 10
-3.08333
 20
-22.606
 11
-6.16667
 21
-22.606
  0
LINE
  8
0
 10
-6.16667
 20
-22.606
 11
-6.16667
 21
-27.75
  0
LINE
  8
0
 10
-6.16667
 20
-27.75
 11
-3.0782
 21
-27.75
  0
LINE
  8
0
 10
-3.0782
 20
-27.75
 11
-3.0782
 21
-22.6111
  0
LINE
  8
0
 10
-3.0782
 20
-22.6111
 11
-1.02778
 21
-22.6111
  0
LINE
  8
0
 10
4.11111
 20
16.4444
 11
4.11111
 21
8.22737
  0
LINE
  8
0
 10
4.11111
 20
8.22737
 11
2.06069
 21
8.22737
  0
LINE
  8
0
 10
2.06069
 20
8.22737
 11
2.06069
 21
16.4444
  0
LINE
  8
0
 10
2.06069
 20
16.4444
 11
4.11111
 21
16.4444
  0
LINE
  8
0
 10
12.3385
 20
-2.05041
 11
12.3385
 21
1.02778
  0
LINE
  8
0
 10
12.3385
 20
1.02778
 11
14.394
 21
1.02778
  0
LINE
  8
0
 10
14.394
 20
1.02778
 11
14.394
 21
3.08333
  0
LINE
  8
0
 10
14.394
 20
3.08333
 11
17.4722
 21
3.08333
  0
LINE
  8
0
 10
17.4722
 20
3.08333
 11
17.4722
 21
-4.10597
  0
LINE
  8
0
 10
17.4722
 20
-4.10597
 11
14.394
 21
-4.10597
  0
LINE
  8
0
 10
14.394
 20
-4.10597
 11
14.394
 21
-2.05041
  0
LINE
  8
0
 10
14.394
 20
-2.05041
 11
12.3385
 21
-2.05041
  0
LINE
  8
0
 10
-8.22222
 20
3.08333
 11
-8.22222
 21
1.03292
  0
LINE
  8
0
 10
-8.22222
 20
1.03292
 11
-11.3004
 21
1.03292
  0
LINE
  8
0
 10
-11.3004
 20
1.03292
 11
-11.3004
 21
3.08333
  0
LINE
  8
0
 10
-11.3004
 20
3.08333
 11
-8.22222
 21
3.08333
  0
LINE
  8
0
 10
-21.5833
 20
1.02778
 11
-21.5833
 21
-2.05041
  0
LINE
  8
0
 10
-21.5833
 20
-2.05041
 11
-23.6338
 21
-2.05041
  0
LINE
  8
0
 10
-23.6338
 20
-2.05041
 11
-23.6338
 21
1.02778
  0
LINE
  8
0
 10
-23.6338
 20
1.02778
 11
-21.5833
 21
1.02778
  0
LINE
  8
0
 10
7.19958
 20
-12.3282
 11
7.19958
 21
-9.25
  0
LINE
  8
0
 10
7.19958
 20
-9.25
 11
9.25514
 21
-9.25
  0
LINE
  8
0
 10
9.25514
 20
-9.25
 11
9.25514
 21
-7.1893
  0
LINE
  8
0
 10
9.25514
 20
-7.1893
 11
7.19958
 21
-7.1893
  0
LINE
  8
0
 10
7.19958
 20
-7.1893
 11
7.19958
 21
-4.11111
  0
LINE
  8
0
 10
7.19958
 20
-4.11111
 11
9.25514
 21
-4.11111
  0
LINE
  8
0
 10
9.25514
 20
-4.11111
 11
9.25514
 21
-2.05556
  0
LINE
  8
0
 10
9.25514
 20
-2.05556
 11
12.3333
 21
-2.05556
  0
LINE
  8
0
 10
12.3333
 20
-2.05556
 11
12.3333
 21
-7.19444
  0
LINE
  8
0
 10
12.3333
 20
-7.19444
 11
14.3889
 21
-7.19444
  0
LINE
  8
0
 10
14.3889
 20
-7.19444
 11
14.3889
 21
-9.25
  0
LINE
  8
0
 10
14.3889
 20
-9.25
 11
17.4722
 21
-9.25
  0
LINE
  8
0
 10
17.4722
 20
-9.25
 11
17.4722
 21
-12.3282
  0
LINE
  8
0
 10
17.4722
 20
-12.3282
 11
14.3889
 21
-12.3282
  0
LINE
  8
0
 10
14.3889
 20
-12.3282
 11
14.3889
 21
-14.3837
  0
LINE
  8
0
 10
14.3889
 20
-14.3837
 11
12.3385
 21
-14.3837
  0
LINE
  8
0
 10
12.3385
 20
-14.3837
 11
12.3385
 21
-12.3282
  0
LINE
  8
0
 10
12.3385
 20
-12.3282
 11
7.19958
 21
-12.3282
  0
LINE
  8
0
 10
-11.3004
 20
-4.10597
 11
-11.3004
 21
-2.05556
  0
LINE
  8
0
 10
-11.3004
 20
-2.05556
 11
-3.08333
 21
-2.05556
  0
LINE
  8
0
 10
-3.08333
 20
-2.05556
 11
-3.08333
 21
-7.1893
  0
LINE
  8
0
 10
-3.08333
 20
-7.1893
 11
-6.16153
 21
-7.1893
  0
LINE
  8
0
 10
-6.16153
 20
-7.1893
 11
-6.16153
 21
-4.10597
  0
LINE
  8
0
 10
-6.16153
 20
-4.10597
 11
-11.3004
 21
-4.10597
  0
LINE
  8
0
 10
-18.5
 20
-2.05556
 11
-18.5
 21
-4.10597
  0
LINE
  8
0
 10
-18.5
 20
-4.10597
 11
-21.5782
 21
-4.10597
  0
LINE
  8
0
 10
-21.5782
 20
-4.10597
 11
-21.5782
 21
-2.05556
  0
LINE
  8
0
 10
-21.5782
 20
-2.05556
 11
-18.5
 21
-2.05556
  0
LINE
  8
0
 10
2.05556
 20
-7.19444
 11
2.05556
 21
-9.24486
  0
LINE
  8
0
 10
2.05556
 20
-9.24486
 11
-1.02264
 21
-9.24486
  0
LINE
  8
0
 10
-1.02264
 20
-9.24486
 11
-1.02264
 21
-7.19444
  0
LINE
  8
0
 10
-1.02264
 20
-7.19444
 11
2.05556
 21
-7.19444
  0
LINE
  8
0
 10
7.19444
 20
-7.19444
 11
7.19444
 21
-9.24486
  0
LINE
  8
0
 10
7.19444
 20
-9.24486
 11
4.11625
 21
-9.24486
  0
LINE
  8
0
 10
4.11625
 20
-9.24486
 11
4.11625
 21
-7.19444
  0
LINE
  8
0
 10
4.11625
 20
-7.19444
 11
7.19444
 21
-7.19444
  0
LINE
  8
0
 10
9.25
 20
26.7274
 11
9.25
 21
8.22222
  0
LINE
  8
0
 10
9.25
 20
8.22222
 11
27.7551
 21
8.22222
  0
LINE
  8
0
 10
27.7551
 20
8.22222
 11
27.7551
 21
26.7274
  0
LINE
  8
0
 10
27.7551
 20
26.7274
 11
9.25
 21
26.7274
  0
LINE
  8
0
 10
24.6667
 20
23.6389
 11
24.6667
 21
11.3107
  0
LINE
  8
0
 10
24.6667
 20
11.3107
 11
12.3385
 21
11.3107
  0
LINE
  8
0
 10
12.3385
 20
11.3107
 11
12.3385
 21
23.6389
  0
LINE
  8
0
 10
12.3385
 20
23.6389
 11
24.6667
 21
23.6389
  0
LINE
  8
0
 10
14.3889
 20
21.5885
 11
14.3889
 21
13.3611
  0
LINE
  8
0
 10
14.3889
 20
13.3611
 11
22.6162
 21
13.3611
  0
LINE
  8
0
 10
22.6162
 20
13.3611
 11
22.6162
 21
21.5885
  0
LINE
  8
0
 10
22.6162
 20
21.5885
 11
14.3889
 21
21.5885
  0
LINE
  8
0
 10
-26.7222
 20
26.7274
 11
-26.7222
 21
8.22222
  0
LINE
  8
0
 10
-26.7222
 20
8.22222
 11
-8.21709
 21
8.22222
  0
LINE
  8
0
 10
-8.21709
 20
8.22222
 11
-8.21709
 21
26.7274
  0
LINE
  8
0
 10
-8.21709
 20
26.7274
 11
-26.7222
 21
26.7274
  0
LINE
  8
0
 10
-11.3056
 20
23.6389
 11
-11.3056
 21
11.3107
  0
LINE
  8
0
 10
-11.3056
 20
11.3107
 11
-23.6338
 21
11.3107
  0
LINE
  8
0
 10
-23.6338
 20
11.3107
 11
-23.6338
 21
23.6389
  0
LINE
  8
0
 10
-23.6338
 20
23.6389
 11
-11.3056
 21
23.6389
  0
LINE
  8
0
 10
-21.5833
 20
21.5885
 11
-21.5833
 21
13.3611
  0
LINE
  8
0
 10
-21.5833
 20
13.3611
 11
-13.356
 21
13.3611
  0
LINE
  8
0
 10
-13.356
 20
13.3611
 11
-13.356
 21
21.5885
  0
LINE
  8
0
 10
-13.356
 20
21.5885
 11
-21.5833
 21
21.5885
  0
LINE
  8
0
 10
-26.7222
 20
-9.24486
 11
-26.7222
 21
-27.75
  0
LINE
  8
0
 10
-26.7222
 20
-27.75
 11
-8.21709
 21
-27.75
  0
LINE
  8
0
 10
-8.21709
 20
-27.75
 11
-8.21709
 21
-9.24486
  0
LINE
  8
0
 10
-8.21709
 20
-9.24486
 11
-26.7222
 21
-9.24486
  0
LINE
  8
0
 10
-11.3056
 20
-12.3333
 11
-11.3056
 21
-24.6615
  0
LINE
  8
0
 10
-11.3056
 20
-24.6615
 11
-23.6338
 21
-24.6615
  0
LINE
  8
0
 10
-23.6338
 20
-24.6615
 11
-23.6338
 21
-12.3333
  0
LINE
  8
0
 10
-23.6338
 20
-12.3333
 11
-11.3056
 21
-12.3333
  0
LINE
  8
0
 10
-21.5833
 20
-14.3837
 11
-21.5833
 21
-22.6111
  0
LINE
  8
0
 10
-21.5833
 20
-22.6111
 11
-13.356
 21
-22.6111
  0
LINE
  8
0
 10
-13.356
 20
-22.6111
 11
-13.356
 21
-14.3837
  0
LINE
  8
0
 10
-13.356
 20
-14.3837
 11
-21.5833
 21
-14.3837
  0
LINE
  8
0
 10
4.11111
 20
-19.5226
 11
4.11111
 21
-22.6111
  0
LINE
  8
0
 10
4.11111
 20
-22.6111
 11
7.19958
 21
-22.6111
  0
LINE
  8
0
 10
7.19958
 20
-22.6111
 11
7.19958
 21
-19.5226
  0
LINE
  8
0
 10
7.19958
 20
-19.5226
 11
4.11111
 21
-19.5226
  0
LINE
  8
0
 10
9.25
 20
-24.6615
 11
9.25
 21
-27.75
  0
LINE
  8
0
 10
9.25
 20
-27.75
 11
12.3385
 21
-27.75
  0
LINE
  8
0
 10
12.3385
 20
-27.75
 11
12.3385
 21
-24.6615
  0
LINE
  8
0
 10
12.3385
 20
-24.6615
 11
9.25
 21
-24.6615
  0
ENDSEC
  0
SECTION
  2
OBJECTS
  0
DICTIONARY
  0
ENDSEC
  0
EOF
